<svg width="740" height="230" viewBox="0 0 740 230" fill="none" xmlns="http://www.w3.org/2000/svg">
  <defs>
    <linearGradient id="amberPhiBg" x1="0" y1="0" x2="740" y2="230" gradientUnits="userSpaceOnUse">
      <stop offset="0%" stop-color="#6C240A"/>
      <stop offset="55%" stop-color="#B43C0A"/>
      <stop offset="100%" stop-color="#EA580C"/>
    </linearGradient>
    <linearGradient id="champagnePhi" x1="30" y1="30" x2="160" y2="160" gradientUnits="userSpaceOnUse">
      <stop offset="0%" stop-color="#FFFFFF"/>
      <stop offset="45%" stop-color="#FFFDF7"/>
      <stop offset="80%" stop-color="#FEF3C7"/>
      <stop offset="100%" stop-color="#FDE68A"/>
    </linearGradient>
    <filter id="phiGlow" x="10" y="20" width="180" height="170" filterUnits="userSpaceOnUse">
      <feGaussianBlur stdDeviation="2.2" result="blur"/>
      <feComposite in="SourceGraphic" in2="blur" operator="over"/>
    </filter>
  </defs>
  <rect width="740" height="230" rx="28" fill="url(#amberPhiBg)" stroke="#FDBA74" stroke-width="1.4"/>
  <g transform="translate(45, 20)" filter="url(#phiGlow)">
    <path d="M 10 74 C 42 36, 98 36, 130 74 C 96 42, 44 42, 10 74 Z" fill="url(#champagnePhi)"/>
    <path d="M 10 94 C 42 132, 98 132, 130 94 C 96 126, 44 126, 10 94 Z" fill="url(#champagnePhi)"/>
    <line x1="70" y1="50" x2="70" y2="118" stroke="url(#champagnePhi)" stroke-width="6.5" stroke-linecap="round"/>
    <circle cx="70" cy="84" r="21" stroke="url(#champagnePhi)" stroke-width="6" fill="none"/>
  </g>
  <line x1="210" y1="45" x2="210" y2="185" stroke="#FFFFFF" stroke-width="1.2" opacity="0.25"/>
  <g transform="translate(240, 48)">
    <g transform="translate(0, 36)">
      <text x="0" y="0" font-family="system-ui, -apple-system, 'Segoe UI', Roboto, sans-serif" font-size="44" font-weight="700" fill="#FFFFFF" letter-spacing="-0.5">provapp</text>
      <rect x="185" y="-24" width="132" height="22" rx="6" fill="#431407" fill-opacity="0.5" stroke="#FDE68A" stroke-width="0.8"/>
      <text x="196" y="-9" font-family="system-ui, sans-serif" font-size="10" font-weight="700" fill="#FEF3C7" letter-spacing="1.2">GOLDEN RATIO LAB</text>
    </g>
    <text x="2" y="68" font-family="system-ui, -apple-system, sans-serif" font-size="15" font-weight="500" fill="#FFEDD5" letter-spacing="0.2">prova yap  •  <tspan fill="#FFFFFF" font-weight="600">potansiyelini kalibre et</tspan>  •  <tspan fill="#FDE68A" font-weight="700">etkini katla.</tspan></text>
    <text x="2" y="94" font-family="system-ui, sans-serif" font-size="11" font-weight="400" fill="#FED7AA" opacity="0.8">multimodal varlık, ses ve beden dili kalibrasyonu</text>
  </g>
</svg>
